<svg width="900" height="900" viewBox="0 0 900 900" fill="none" xmlns="http://www.w3.org/2000/svg">
  <defs>
    <linearGradient id="coat" x1="320" y1="320" x2="620" y2="760" gradientUnits="userSpaceOnUse">
      <stop stop-color="#f8fafc"/>
      <stop offset="1" stop-color="#e2e8f0"/>
    </linearGradient>
    <linearGradient id="shirt" x1="430" y1="430" x2="500" y2="680" gradientUnits="userSpaceOnUse">
      <stop stop-color="#ef4444"/>
      <stop offset="1" stop-color="#b91c1c"/>
    </linearGradient>
  </defs>

  <g opacity="0.92">
    <circle cx="450" cy="290" r="95" fill="#d6d3d1"/>
    <path d="M330 760C330 620 350 530 390 470H510C550 530 570 620 570 760H330Z" fill="url(#coat)"/>
    <path d="M430 470H470V680H430V470Z" fill="url(#shirt)"/>
    <path d="M390 470L350 640L420 700L450 610L480 700L550 640L510 470H390Z" fill="#f1f5f9"/>
    <circle cx="450" cy="305" r="68" fill="#fde68a"/>
    <path d="M395 280C395 242 425 210 460 210C495 210 520 244 520 280V300H395V280Z" fill="#334155"/>

    <!-- Stethoscope -->
    <path d="M410 510C410 560 490 560 490 510V450" stroke="#1e293b" stroke-width="8" stroke-linecap="round"/>
    <circle cx="490" cy="448" r="15" fill="#334155"/>

    <!-- Floating health UI cards -->
    <rect x="120" y="180" width="170" height="96" rx="16" fill="#f8fafc" fill-opacity="0.8"/>
    <path d="M150 230H210L225 210L245 245L260 230" stroke="#dc2626" stroke-width="5" stroke-linecap="round" stroke-linejoin="round"/>
    <rect x="610" y="210" width="180" height="96" rx="16" fill="#f8fafc" fill-opacity="0.8"/>
    <circle cx="655" cy="258" r="18" fill="#fecaca"/>
    <rect x="685" y="246" width="70" height="10" rx="5" fill="#334155" fill-opacity="0.7"/>
    <rect x="685" y="264" width="48" height="10" rx="5" fill="#64748b" fill-opacity="0.7"/>
  </g>
</svg>

